<svg height="512" viewBox="0 0 36 58" width="512" xmlns="http://www.w3.org/2000/svg"><g id="Page-1" fill="none" fill-rule="evenodd"><g id="007---Nurse" fill-rule="nonzero" transform="translate(0 -1)"><path id="Shape" d="m31.02 28c0 1.6568542-1.3431458 3-3 3-.1882886.0003363-.3760566-.0197817-.56-.06-.6522214 1.6694685-1.7697753 3.1167355-3.22 4.17-1.0470253.8226918-2.1884163 1.5175975-3.4 2.07-.8797163.4491309-1.8366178.7273789-2.82.82-.9978326-.0968408-1.968281-.3818677-2.86-.84-1.1982953-.5458563-2.3264309-1.2341533-3.36-2.05-1.4502247-1.0532645-2.56777859-2.5005315-3.22-4.17-.18394343.0402183-.37171144.0603363-.56.06-1.65685425 0-3-1.3431458-3-3s1.34314575-3 3-3v-3.94c3.41-.01 10-.61 10-5.06 0 4.45 6.59 5.05 10 5.06v3.94c1.6568542 0 3 1.3431458 3 3z" fill="#fdd7ad"/><path id="Shape" d="m34.3 40.19c-2.93.18-8.71-.13-10.06-5.08 1.4502247-1.0532645 2.5677786-2.5005315 3.22-4.17.1839434.0402183.3717114.0603363.56.06 1.6568542 0 3-1.3431458 3-3s-1.3431458-3-3-3v-3.94c-3.41-.01-10-.61-10-5.06l-.02-1c3.1178657-.082177 6.2210692.4548506 9.13 1.58l1.25-4.05c2.0491638 1.3293732 3.6626342 3.23146 4.64 5.47 4.18 9.4 0 16.49 2.08 20.73.1551464.2964351.1517631.6508196-.0090144.9442387-.1607776.293419-.4576443.4869907-.7909856.5157613z" fill="#805333"/><path id="Shape" d="m36 55v3c0 .5522847-.4477153 1-1 1h-34c-.55228475 0-1-.4477153-1-1v-3c-.00191673-4.6295053 2.8970142-8.7639805 7.25-10.34l6.41 8.57c.3376588.449008.8537927.7290982 1.4142817.7674879.5604889.0383896 1.1099921-.1687118 1.5057183-.5674879l1.42-1.43 1.42 1.43c.3957262.3987761.9452294.6058775 1.5057183.5674879.560489-.0383897 1.0766229-.3184799 1.4142817-.7674879l6.41-8.57c4.3529858 1.5760195 7.2519167 5.7104947 7.25 10.34z" fill="#81ccb8"/><path id="Shape" d="m28.75 44.66-6.41 8.57c-.3376588.449008-.8537927.7290982-1.4142817.7674879-.5604889.0383896-1.1099921-.1687118-1.5057183-.5674879l-1.42-1.43 5-8h2c1.2791611-.0031054 2.5487648.2203448 3.75.66z" fill="#26b99a"/><path id="Shape" d="m23 44-5 8-5-8c1.9-1.73 2.31-4.71 2.16-6.84.891719.4581323 1.8621674.7431592 2.86.84.9833822-.0926211 1.9402837-.3708691 2.82-.82-.15 2.13.26 5.1 2.16 6.82z" fill="#f9c795"/><path id="Shape" d="m18 52-1.42 1.43c-.3957262.3987761-.9452294.6058775-1.5057183.5674879-.560489-.0383897-1.0766229-.3184799-1.4142817-.7674879l-6.41-8.57c1.20123522-.4396552 2.47083892-.6631054 3.75-.66h2z" fill="#26b99a"/><path id="Shape" d="m30.53 5.54-2.15 6.99-1.25 4.05c-2.9089308-1.1251494-6.0121343-1.662177-9.13-1.58-3.1178657-.082177-6.2210692.4548506-9.13 1.58l-1.24-4.03-2.16-7.01c-.29432101-.94162192.14906915-1.95630326 1.04-2.38 3.6274008-1.54683092 7.5485083-2.2839582 11.49-2.16 3.9414917-.1239582 7.8625992.61316908 11.49 2.16.8909309.42369674 1.334321 1.43837808 1.04 2.38z" fill="#ecf0f1"/><path id="Shape" d="m5.02 28c0 1.6568542 1.34314575 3 3 3 .18828856.0003363.37605657-.0197817.56-.06.65222141 1.6694685 1.7697753 3.1167355 3.22 4.17-1.35 4.95-7.13 5.26-10.06 5.08-.33334131-.0287706-.630208-.2223423-.79098557-.5157613-.16077757-.2934191-.1641608-.6478036-.00901443-.9442387 2.08-4.24-2.1-11.33 2.08-20.73.96975441-2.2289457 2.57274571-4.1240221 4.61-5.45l1.24 4.03c2.9089308-1.1251494 6.0121343-1.662177 9.13-1.58l.02 1c0 4.45-6.59 5.05-10 5.06v3.94c-1.65685425 0-3 1.3431458-3 3z" fill="#a56a43"/><path id="Shape" d="m21 7h-2v-2c0-.55228475-.4477153-1-1-1s-1 .44771525-1 1v2h-2c-.5522847 0-1 .44771525-1 1s.4477153 1 1 1h2v2c0 .5522847.4477153 1 1 1s1-.4477153 1-1v-2h2c.5522847 0 1-.44771525 1-1s-.4477153-1-1-1z" fill="#ff5364"/><path id="Shape" d="m32 52h-1v-1c0-.5522847-.4477153-1-1-1s-1 .4477153-1 1v1h-1c-.5522847 0-1 .4477153-1 1s.4477153 1 1 1h1v1c0 .5522847.4477153 1 1 1s1-.4477153 1-1v-1h1c.5522847 0 1-.4477153 1-1s-.4477153-1-1-1z" fill="#fff"/></g></g></svg>