<svg id="Capa_1" enable-background="new 0 0 512 512" height="512" viewBox="0 0 512 512" width="512" xmlns="http://www.w3.org/2000/svg"><path d="m451 45v452c0 8.401-6.599 15-15 15h-360c-8.401 0-15-6.599-15-15v-452c0-8.401 6.599-15 15-15h360c8.401 0 15 6.599 15 15z" fill="#bf6015"/><path d="m451 45v452c0 8.401-6.599 15-15 15h-180v-482h180c8.401 0 15 6.599 15 15z" fill="#994c0f"/><path d="m91 60h330v422h-330z" fill="#dcf4ff"/><path d="m256 60h165v422h-165z" fill="#ccefff"/><path d="m346 181h-45v-46c0-8.401-6.599-15-15-15h-60c-8.401 0-15 6.599-15 15v46h-45c-8.401 0-15 6.599-15 15v60c0 8.401 6.599 15 15 15h45v46c0 8.401 6.599 15 15 15h60c8.401 0 15-6.599 15-15v-46h45c8.401 0 15-6.599 15-15v-60c0-8.401-6.599-15-15-15z" fill="#ff6849"/><g fill="#596c76"><path d="m361 377c0 8.401-6.599 15-15 15h-120c-8.401 0-15-6.599-15-15s6.599-15 15-15h120c8.401 0 15 6.599 15 15z"/><circle cx="165.999" cy="376.999" r="15"/><path d="m361 437c0 8.401-6.599 15-15 15h-120c-8.401 0-15-6.599-15-15s6.599-15 15-15h120c8.401 0 15 6.599 15 15z"/><circle cx="165.999" cy="436.999" r="15"/></g><path d="m316 0h-120c-8.401 0-15 6.599-15 15v60c0 8.401 6.599 15 15 15h120c8.401 0 15-6.599 15-15v-60c0-8.401-6.599-15-15-15z" fill="#00c3ff"/><path d="m316 90h-60v-90h60c8.401 0 15 6.599 15 15v60c0 8.401-6.599 15-15 15z" fill="#00aaf0"/><path d="m361 437c0 8.401-6.599 15-15 15h-90v-30h90c8.401 0 15 6.599 15 15z" fill="#465a61"/><path d="m361 377c0 8.401-6.599 15-15 15h-90v-30h90c8.401 0 15 6.599 15 15z" fill="#465a61"/><path d="m361 196v60c0 8.401-6.599 15-15 15h-45v46c0 8.401-6.599 15-15 15h-30v-212h30c8.401 0 15 6.599 15 15v46h45c8.401 0 15 6.599 15 15z" fill="#fd4b2d"/></svg>