<svg height="512pt" viewBox="0 0 512 512" width="512pt" xmlns="http://www.w3.org/2000/svg"><path d="m211 0h30v85.296875h-30zm0 0" fill="#3e7b81"/><path d="m151 0h30v93.644531h-30zm0 0" fill="#c782ff"/><path d="m482 45c-16.570312 0-30 13.429688-30 30v154.804688l-266 232.195312 70 50h166v-70l90-149.5v-217.5c0-16.570312-13.429688-30-30-30zm0 0" fill="#ffa785"/><path d="m443.214844 208.785156c-11.71875-11.714844-30.710938-11.714844-42.429688 0l-127.253906 127.253906c-10.851562 10.859376-17.53125 25.894532-17.53125 42.460938l-30 51.75 30 51.75c49.707031 0 90-40.292969 90-90v-43.574219l97.214844-97.210937c11.714844-11.71875 11.714844-30.710938 0-42.429688zm0 0" fill="#ffbea4"/><path d="m195.5 347.925781-135.5-118.121093v-154.804688c0-16.570312-13.429688-30-30-30s-30 13.429688-30 30v217.5l90 149.5v70h166v-30zm0 0" fill="#ffbea4"/><path d="m238.46875 336.039062-127.253906-127.253906c-11.71875-11.714844-30.710938-11.714844-42.429688 0-11.714844 11.71875-11.714844 30.710938 0 42.429688l97.214844 97.210937v43.574219c0 49.707031 40.292969 90 90 90v-103.5c0-16.566406-6.679688-31.601562-17.53125-42.460938zm0 0" fill="#ffd4c4"/><path d="m356.71875 72.078125c-3.335938-3.335937-6.933594-6.257813-10.71875-8.773437v-63.304688h-60v55.308594c-9.941406 3.285156-19.292969 8.863281-27.203125 16.769531-.96875.96875-1.898437 1.960937-2.796875 2.972656l-60 97.835938 60 97.835937 100.71875-100.722656c27.042969-27.039062 27.042969-70.882812 0-97.921875zm0 0" fill="#e00016"/><path d="m253.203125 72.078125c-27.042969-27.039063-70.882813-27.039063-97.921875 0-27.042969 27.039063-27.042969 70.882813 0 97.921875l100.71875 100.722656v-195.671875c-.898438-1.011719-1.828125-2.003906-2.796875-2.972656zm0 0" fill="#ff4547"/></svg>