<svg height="512pt" viewBox="0 0 512 512" width="512pt" xmlns="http://www.w3.org/2000/svg"><path d="m512 256c0 141.386719-114.613281 256-256 256s-256-114.613281-256-256 114.613281-256 256-256 256 114.613281 256 256zm0 0" fill="#10bb66"/><path d="m508.722656 296.953125-210.679687-210.679687-119.074219 238.839843 30.460938 30 10.824218 87.125 67.769532 67.769531c112.785156-14.074218 202.765624-101.515624 220.699218-213.054687zm0 0" fill="#0ca655"/><path d="m297.734375 442.238281h-77.480469l-17.261718-138.953125h112.003906zm0 0" fill="#c8c6ce"/><path d="m314.996094 303.285156h-56.003906v138.953125h38.742187zm0 0" fill="#aeadb4"/><path d="m339.019531 325.113281h-160.050781v-113.492187c0-30.082032 24.476562-54.558594 54.5625-54.558594h50.921875c30.085937 0 54.5625 24.472656 54.5625 54.558594v113.492187zm0 0" fill="#fedb41"/><path d="m284.457031 157.0625h-25.464843v168.050781h80.027343v-113.492187c0-30.082032-24.480469-54.558594-54.5625-54.558594zm0 0" fill="#fcbf27"/><path d="m307.007812 289.679688-38.480468-38.785157c-12.679688-12.78125-12.679688-33.578125 0-46.359375 6.167968-6.214844 14.375-9.640625 23.109375-9.644531h.011719c5.445312 0 10.6875 1.332031 15.359374 3.839844 4.671876-2.507813 9.914063-3.839844 15.359376-3.839844h.011718c8.734375.003906 16.941406 3.425781 23.109375 9.644531 12.679688 12.78125 12.679688 33.578125 0 46.359375zm0 0" fill="#fd3019"/><path d="m258.992188 178.886719c-30.085938 0-54.5625-24.476563-54.5625-54.5625 0-30.085938 24.476562-54.5625 54.5625-54.5625 30.085937 0 54.5625 24.476562 54.5625 54.5625 0 30.085937-24.476563 54.5625-54.5625 54.5625zm0 0" fill="#fedbab"/><path d="m258.992188 69.761719v109.125c30.085937 0 54.5625-24.476563 54.5625-54.5625 0-30.085938-24.476563-54.5625-54.5625-54.5625zm0 0" fill="#fec478"/><path d="m345.488281 204.535156c-6.167969-6.21875-14.375-9.640625-23.109375-9.644531-.003906 0-.007812 0-.011718 0-5.445313 0-10.6875 1.332031-15.359376 3.839844v90.949219l38.480469-38.785157c12.683594-12.78125 12.683594-33.578125 0-46.359375zm0 0" fill="#e71e15"/></svg>