<?xml version="1.0" encoding="utf-8"?>
<!-- Generator: Adobe Illustrator 16.0.0, SVG Export Plug-In . SVG Version: 6.00 Build 0)  -->
<!DOCTYPE svg PUBLIC "-//W3C//DTD SVG 1.1//EN" "http://www.w3.org/Graphics/SVG/1.1/DTD/svg11.dtd">
<svg version="1.1" xmlns="http://www.w3.org/2000/svg" xmlns:xlink="http://www.w3.org/1999/xlink" x="0px" y="0px" width="1400px"
	 height="980px" viewBox="0 0 1400 980" enable-background="new 0 0 1400 980" xml:space="preserve">
<g id="BACKGROUND">
	<rect x="-10.578" y="-9.885" fill="#FFFFFF" width="1421.929" height="1000.45"/>
</g>
<g id="OBJECTS">
	<g>
		<defs>
			<path id="SVGID_1_" d="M188.326,847.254h1053.306c0,0,77.862-667.792-281.923-667.792c-351.206,0-250.8,201.636-585.516,227.728
				C33.604,433.74,188.326,847.254,188.326,847.254z"/>
		</defs>
		<clipPath id="SVGID_2_">
			<use xlink:href="#SVGID_1_"  overflow="visible"/>
		</clipPath>
		<rect x="101.206" y="125.334" clip-path="url(#SVGID_2_)" fill="#4687D9" width="1193.344" height="839.621"/>
		<g clip-path="url(#SVGID_2_)">
			<text transform="matrix(1 0 0 1 826.1914 385.8281)"><tspan x="0" y="0" fill="#FFFFFF" font-family="'BebasNeue-Regular'" font-size="47.2088" letter-spacing="14">A</tspan><tspan x="-24.299" y="36.927" fill="#FFFFFF" font-family="'BebasNeue-Regular'" font-size="37.767" letter-spacing="11">ABC</tspan><tspan x="-27.793" y="62.943" fill="#FFFFFF" font-family="'BebasNeue-Regular'" font-size="23.6044" letter-spacing="7">ABCDE</tspan><tspan x="-16.924" y="88.96" fill="#FFFFFF" font-family="'BebasNeue-Regular'" font-size="11.7494" letter-spacing="3">ABCDEFg</tspan></text>
		</g>
		<rect x="153.778" y="605.967" clip-path="url(#SVGID_2_)" fill="#8EC1F4" width="1120.631" height="73.447"/>
		<g clip-path="url(#SVGID_2_)">
			<rect x="789" y="327.672" fill="none" stroke="#E2EDED" stroke-miterlimit="10" width="97.352" height="172.706"/>
		</g>
		<g clip-path="url(#SVGID_2_)">
			<path fill="#274C9A" d="M1155.257,631.876H777.235c-3.211,0-5.814,2.608-5.814,5.825v17.879c0,3.218,2.604,5.825,5.814,5.825
				h378.021c3.211,0,5.813-2.607,5.813-5.825v-17.879C1161.07,634.484,1158.468,631.876,1155.257,631.876z"/>
			<rect x="793.129" y="661.405" fill="#224687" width="336.466" height="199.632"/>
			<rect x="807.783" y="749.408" fill="#3461B2" width="307.156" height="102.934"/>
			<rect x="966.246" y="679.414" fill="#3461B2" width="148.693" height="61.625"/>
			<rect x="807.783" y="679.414" fill="#3461B2" width="138.383" height="61.625"/>
			<path fill="#274C9A" d="M1062.14,728.896h-46.348c-1.588,0-2.875-1.287-2.875-2.875v-6.756c0-1.588,1.287-2.875,2.875-2.875
				h46.348c1.588,0,2.875,1.287,2.875,2.875v6.756C1065.015,727.608,1063.728,728.896,1062.14,728.896z"/>
			<path fill="#274C9A" d="M900.149,728.896h-46.349c-1.588,0-2.875-1.287-2.875-2.875v-6.756c0-1.588,1.287-2.875,2.875-2.875
				h46.349c1.587,0,2.875,1.287,2.875,2.875v6.756C903.024,727.608,901.736,728.896,900.149,728.896z"/>
		</g>
		<g clip-path="url(#SVGID_2_)">
			<polygon fill="#E2EDED" points="834.018,704.31 852.477,837.326 655.573,837.326 663.673,707.817 			"/>
			<ellipse fill="#213F85" cx="736.553" cy="361.447" rx="22.376" ry="20.524"/>
			<ellipse fill="#FDCD7B" cx="725.905" cy="369.78" rx="20.987" ry="19.29"/>
			<path fill="#32C8CC" d="M666.407,475.186l-2.386,3.817c-9.451,15.117-15.447,32.134-17.561,49.837l-12.338,103.363l32.706,6.366
				l27.431-89.397L666.407,475.186z"/>
			<path fill="#32C8CC" d="M649.669,608.867l-67.296,39.675l7.367,23.213c0,0,71.263-2.079,77.087-33.186L649.669,608.867z"/>
			<path fill="#3CD4E1" d="M666.407,475.186c0,0,66.484-34.551,128.893-19.356c0,0,14.356,75.326,6.907,120.694
				c0,0,29.995,67.076,48.446,186.467c0,0-64.28,49.778-197.66,12.679c0,0,9.945-166.802,29.183-195.564
				C682.177,580.104,664.503,507.023,666.407,475.186z"/>
			<path fill="#E2EDED" d="M689.686,465.428L689.686,465.428c-0.027,0.011-0.056,0.022-0.083,0.033l24.837,140.693l37.376-153.904
				C727.606,453.627,705.391,459.822,689.686,465.428z"/>
			<path fill="#32C8CC" d="M751.885,451.968l-37.445,154.187l47.756-77.094l-10.311-22.219l32.253-35.196
				C784.138,471.646,783.903,452.99,751.885,451.968z"/>
			<polygon fill="#32C8CC" points="689.602,465.461 714.439,606.154 689.602,549.715 694.259,533.555 675.229,498.619 			"/>
			<polygon fill="#FFA1BB" points="740.363,460.167 720.688,482.421 710.348,466.857 701.012,424.971 731.027,418.28 			"/>
			<path fill="#FFB0CA" d="M665.935,402.804c0,0,10.125,43.055,34.662,43.055c0,0,35.647-7.407,26.388-50.462
				S660.902,360.212,665.935,402.804z"/>
			<path fill="#213F85" d="M672.82,385.366c0,0,29.819,20.998,55.495,18.832l8.085-7.104c0,0,10.185-35.802-15.433-41.975
				c-25.617-6.173-52.468-0.309-61.727,18.209c0,0-10.683,22.222,6.695,29.475C665.935,402.804,666.338,389.07,672.82,385.366z"/>
			<path fill="none" stroke="#231F20" stroke-miterlimit="10" d="M688.474,415.253c0,0,0.926,9.259-2.778,12.346
				c0,0,2.778,2.909,11.729-3.175"/>
			<path fill="#FFB0CA" d="M724.054,404.193c0,0,7.407-18.21,12.963-12.654c5.555,5.556,1.831,29.866-11.275,32.834L724.054,404.193
				z"/>
			<path fill="none" stroke="#231F20" stroke-miterlimit="10" d="M694.259,436.833c0,0,6.729,0,8.523-4.038"/>
			<polygon fill="#C5D1D1" points="738.512,449.86 720.688,482.421 734.69,491.842 751.885,451.968 			"/>
			<polygon fill="#C5D1D1" points="707.022,453.634 720.688,482.421 709.555,491.842 702.782,459.99 			"/>
		</g>
		<g clip-path="url(#SVGID_2_)">
			
				<rect x="324.762" y="505.471" transform="matrix(0.9573 -0.2892 0.2892 0.9573 -139.9521 119.8476)" fill="#12509B" width="21.708" height="56.166"/>
			
				<rect x="463.989" y="463.415" transform="matrix(0.9573 -0.2892 0.2892 0.9573 -121.8422 158.3119)" fill="#12509B" width="21.708" height="56.167"/>
			<path fill="#12509B" d="M622.033,779.838l-81.714-270.516c-4.244-14.05-19.075-22-33.125-17.756l-204.716,61.839
				c-14.05,4.244-21.999,19.074-17.755,33.124l81.714,270.517c4.244,14.05,19.074,21.999,33.124,17.755l204.716-61.838
				C618.328,808.719,626.277,793.889,622.033,779.838z"/>
			<path fill="#1B63C5" d="M621.965,779.612l-81.578-270.064c-4.282-14.175-19.244-22.194-33.418-17.913l-175.171,52.914
				c-14.175,4.281-22.195,19.244-17.914,33.419l81.578,270.063c4.282,14.175,19.244,22.195,33.419,17.913l175.171-52.913
				C618.227,808.749,626.247,793.787,621.965,779.612z"/>
			<path fill="#12509B" d="M520.64,444.174l-4.071-13.476c-3.964-13.124-17.817-20.549-30.941-16.585l-208.069,62.851
				c-13.124,3.964-20.55,17.817-16.585,30.941l4.071,13.477c3.964,13.124,17.817,20.549,30.941,16.585l208.069-62.851
				C517.179,471.151,524.604,457.298,520.64,444.174z"/>
			<path fill="#1B63C5" d="M520.391,443.348l-3.571-11.823c-4.103-13.581-18.438-21.264-32.018-17.162l-177.324,53.564
				c-13.581,4.102-21.264,18.437-17.162,32.018l3.571,11.823c4.102,13.58,18.437,21.264,32.018,17.162l177.324-53.564
				C516.809,471.263,524.493,456.928,520.391,443.348z"/>
			<g>
				<path fill="#1B63C5" d="M768.645,726.205H567.011c-10.126,0-18.335,8.209-18.335,18.335v32.441
					c0,12.013,11.357,20.779,22.978,17.738l45.341-11.868c26.218-6.862,53.218-10.275,80.319-10.152l118.364,0.539
					C815.678,747.262,794.62,726.205,768.645,726.205z"/>
				<path fill="#12509B" d="M548.676,744.54v32.441c0,5.624,2.507,10.515,6.347,13.837l30.437-7.967
					c26.217-6.862,53.218-10.275,80.318-10.152l22.741,0.104c2.931-0.069,5.862-0.116,8.795-0.104l86.824,0.396
					c-0.077-25.909-21.102-46.89-47.029-46.89H567.011C556.885,726.205,548.676,734.414,548.676,744.54z"/>
			</g>
			<rect x="725.109" y="772.826" fill="#1B63C5" width="46.312" height="60.895"/>
			<rect x="725.109" y="772.826" fill="#12509B" width="26.775" height="60.895"/>
		</g>
		<g clip-path="url(#SVGID_2_)">
			<polygon fill="#1F4087" points="587.219,758.512 719.203,833.191 448.549,833.819 438.031,810.494 			"/>
			<path fill="#FFB0CA" d="M740.945,702.604c0,0,62.579,3.022,61.239,24.831c-1.341,21.809-24.748,20.775-30.874,14.768
				c-6.127-6.008-24.709,8.846-43.092-9.569C728.219,732.634,717.705,713.144,740.945,702.604z"/>
			<path fill="#FFB0CA" d="M504.145,521.505l11.852-1.075c17.46,4.333,54.621,54.553,61.907,71l35.57,101.832l-32.817,44.086
				L504.145,521.505z"/>
			<polygon fill="#FFB0CA" points="610.599,690.992 741.994,702.698 730.001,732.577 580.657,737.348 			"/>
			
				<rect x="402.01" y="493.64" transform="matrix(0.9453 -0.3261 0.3261 0.9453 -146.3839 166.5774)" fill="#FFA1BB" width="43.415" height="52.641"/>
			<path fill="#FFB0CA" d="M438.669,444.673c0,0,33.144,57.046-2.604,68.073c-35.748,11.028-45.558-7.94-49.325-39.072
				C382.973,442.542,422.17,422.35,438.669,444.673z"/>
			<path fill="#FDCD7B" d="M501.163,512.642c0,0-98.226,9.938-173.117,60.951c0,0,42.229,173.948,109.985,245.31
				c0,0,100.216-9.783,153.942-59.711C591.973,759.191,569.542,555.865,501.163,512.642z"/>
			<path fill="#213F85" d="M439.843,435.952c0,0-14.379,51.908-47.605,61.792c0,0,8.792,12.265,8.802,20.556
				c0,0-41.923-21.513-28.102-58.789C386.759,422.235,432.775,426.297,439.843,435.952z"/>
			<path fill="none" stroke="#231F20" stroke-miterlimit="10" d="M436.312,471.542c0,0,3.471,7.253,9.344,6.865
				c0,0-1.796,6.438-5.045,6.314"/>
			<path fill="none" stroke="#231F20" stroke-miterlimit="10" d="M433.19,497.557c0,0,6.356,2.825,11.715,0.447"/>
			<path fill="#C49757" d="M464.438,518.836c-20.47,4.357-47.431,11.485-75.439,22.778c6.159,15.249,26.874,21.978,47.044,15.021
				C454.937,550.117,466.756,533.857,464.438,518.836z"/>
			<path fill="#FFA1BB" d="M459.298,519.959c-18.478,4.143-41.419,10.412-65.375,19.703c5.302,13.256,23.275,19.113,40.776,13.077
				C451.081,547.089,461.333,532.982,459.298,519.959z"/>
			<g>
				<path fill="#1B63C5" d="M554.393,793.02H352.759c-10.126,0-18.335,8.209-18.335,18.335v32.442
					c0,12.012,11.358,20.778,22.978,17.737l45.342-11.868c26.218-6.862,53.218-10.274,80.318-10.152l118.364,0.539
					C601.425,814.076,580.368,793.02,554.393,793.02z"/>
				<path fill="#12509B" d="M334.424,811.354v32.442c0,5.622,2.507,10.514,6.347,13.836l30.437-7.967
					c26.218-6.862,53.218-10.275,80.318-10.152l22.741,0.104c2.93-0.069,5.861-0.116,8.795-0.104l86.824,0.396
					c-0.078-25.909-21.102-46.89-47.029-46.89H352.759C342.633,793.02,334.424,801.229,334.424,811.354z"/>
			</g>
			<path fill="#FFB0CA" d="M328.046,589.151l55.37-7.522l19.413,189.491l-39.686,23.104c-6.243,3.634-14.155-0.393-14.891-7.579
				L328.046,589.151z"/>
			<polygon fill="#FFB0CA" points="383.412,752.384 520.695,774.987 506.248,806.541 355.366,795.585 			"/>
			<path fill="#FFB0CA" d="M520.695,774.987c0,0,59.577,1.771,59.282,23.618c-0.295,21.847-23.725,21.936-30.132,16.228
				c-6.407-5.708-27.931,10.493-43.597-8.292C506.248,806.541,497.986,786.627,520.695,774.987z"/>
			<path fill="#FDCD7B" d="M328.046,573.593c0,0-13.205,67.655-16.823,103.11c0,0,52.018,13.024,90.779-5.065l-14.08-91.171
				C387.922,580.467,347.764,563.824,328.046,573.593z"/>
			<path fill="#FDCD7B" d="M501.163,512.642l11.588-1.823h0.738c9.899,0,19.231,4.631,25.203,12.525
				c16.309,21.559,41.565,62.499,48.526,82.036c0,0-19.848,18.765-50.962,22.251C536.257,627.631,497.184,541.776,501.163,512.642z"
				/>
			<path fill="#FFB0CA" d="M402.174,496.369c0,0-7.22-10.248-16.528-5.573c-9.309,4.675,6.474,21.282,17.166,20.987L402.174,496.369
				z"/>
		</g>
		<g clip-path="url(#SVGID_2_)">
			<g>
				<path fill="#213F85" d="M664.596,679.728c-5.478,0-11.375-1.174-17.666-3.522c-61.729-23.053-84.284-63.053-96.4-84.543
					c-4.198-7.442-7.829-13.863-10.166-13.732l-0.254-4.333c5.04-0.338,8.494,5.812,14.201,15.933
					c11.846,21.009,33.894,60.11,94.137,82.607c13.787,5.149,25.342,4.127,34.35-3.038c40.228-31.998,22.185-173.393,21.997-174.816
					l4.305-0.566c0.776,5.915,18.539,145.261-23.599,178.78C679.443,677.314,672.45,679.728,664.596,679.728z"/>
			</g>
			<path fill="#213F85" d="M733.864,413.818h-3.409v-9.314h3.409c1.714,0,3.103,1.389,3.103,3.103v3.109
				C736.967,412.429,735.578,413.818,733.864,413.818z"/>
			<g>
				<path fill="#213F85" d="M704.506,496.19l-0.432-0.165c-1.21-0.464-28.724-19.752-29.632-70.98l3.535,6.316
					c2.864,44.181,23.95,58.874,27.269,60.439c9.2-0.61,16.578-4.34,21.936-11.087c16.934-21.33,4.563-67.729,4.483-68.177
					l4.276-0.757c0.337,1.907,12.777,48.787-5.359,71.634c-6.264,7.89-14.881,12.18-25.614,12.753L704.506,496.19z"/>
			</g>
			<path fill="#1A3468" d="M703.276,488.662h7.336c2.928,0,4.555,3.386,2.727,5.672l-5.269,6.585
				c-0.662,0.828-1.665,1.311-2.726,1.311l0,0c-1.525,0-2.874-0.99-3.331-2.445l-2.068-6.585
				C699.239,490.95,700.919,488.662,703.276,488.662z"/>
			<circle fill="#E2EDED" cx="529.021" cy="585.843" r="19.537"/>
			<circle fill="#213F85" cx="529.021" cy="585.843" r="13.024"/>
		</g>
		<g clip-path="url(#SVGID_2_)">
			<path fill="#54E9ED" d="M784.138,453.634l-66.262,142.209l26.23,24.846l69.156-109.501c7.523-11.913,8.616-27.027,2.108-39.524
				C810.463,462.24,801.271,453.954,784.138,453.634z"/>
			<path fill="#54E9ED" d="M725.109,586.074l-140.915-26.592v26.592c0,0,102.206,49.149,159.912,34.614L725.109,586.074z"/>
			<path fill="#FFB0CA" d="M584.194,559.482c0,0-33.799-0.17-47.833-5.512c0,0-25.885,27.069-3.636,48.161
				c0,0,2.262,2.438,10.23-7.374c0,0,21.159,7.598,41.239-8.684V559.482z"/>
		</g>
		<g clip-path="url(#SVGID_2_)">
			<g>
				<path fill="none" stroke="#10514F" stroke-miterlimit="10" d="M1093.777,437.188c0,0-37.4,29.576-45.699,98.498"/>
				<path fill="#32C6C9" d="M1095.134,472.192c0,0-28.333-3.31-39.13,26.836C1056.004,499.028,1086.994,494.713,1095.134,472.192z"
					/>
				<path fill="#32C6C9" d="M1062.302,425.521c0,0,11.394,30.041,3.527,49.419C1065.829,474.939,1046.563,456.454,1062.302,425.521z
					"/>
				<circle fill="#FDCD7B" cx="1097.065" cy="425.425" r="1.931"/>
				<circle fill="#FDCD7B" cx="1098.997" cy="440.919" r="3.731"/>
				<circle fill="#FDCD7B" cx="1089.223" cy="454.192" r="3.866"/>
				<circle fill="#FDCD7B" cx="1086.645" cy="434.611" r="2.578"/>
				<circle fill="#FDCD7B" cx="1079.238" cy="442.547" r="3.731"/>
				<circle fill="#FDCD7B" cx="1109.515" cy="423.079" r="2.442"/>
			</g>
			<g>
				<path fill="none" stroke="#10514F" stroke-miterlimit="10" d="M966.246,374.179c0,0,62.771,64.869,60.238,161.507"/>
				<path fill="#3CD4E1" d="M1012.917,386.719c0,0-8.841,47.213,8.604,96.598C1021.521,483.317,1038.423,429.591,1012.917,386.719z"
					/>
				<path fill="#3CD4E1" d="M972.758,447.439c0,0,45.931,6.829,49.8,40.915C1022.558,488.354,986.325,481.026,972.758,447.439z"/>
				<circle fill="#FDCD7B" cx="961.995" cy="360.579" r="2.804"/>
				<circle fill="#FDCD7B" cx="976.799" cy="370.138" r="4.042"/>
				<circle fill="#FDCD7B" cx="960.458" cy="374.237" r="2.713"/>
				<circle fill="#FDCD7B" cx="967.467" cy="389.387" r="2.668"/>
				<circle fill="#FDCD7B" cx="971.523" cy="407.19" r="5.277"/>
				<circle fill="#FDCD7B" cx="986.506" cy="384.729" r="1.99"/>
				<circle fill="#FDCD7B" cx="996.637" cy="399.562" r="2.352"/>
			</g>
			<g>
				<path fill="none" stroke="#10514F" stroke-miterlimit="10" d="M1059.769,376.95c0,0-29.454,74.348-22.144,158.736"/>
				<path fill="#3CD4E1" d="M1070.623,430.857c0,0-33.796,7.598-32.998,46.671C1037.625,477.528,1067.729,465.228,1070.623,430.857z
					"/>
				<path fill="#3CD4E1" d="M1037.625,392.055c0,0,12.384,24.363,2.792,62.877C1040.417,454.933,1025.974,433.208,1037.625,392.055z
					"/>
				<circle fill="#FDCD7B" cx="1066.372" cy="351.715" r="2.442"/>
				<circle fill="#FDCD7B" cx="1049.662" cy="362.23" r="4.455"/>
				<circle fill="#FDCD7B" cx="1075.507" cy="381.834" r="4.884"/>
				<circle fill="#FDCD7B" cx="1065.829" cy="398.386" r="3.527"/>
				<circle fill="#FDCD7B" cx="1048.079" cy="387.601" r="2.872"/>
				<circle fill="#FDCD7B" cx="1071.648" cy="367.303" r="2.835"/>
			</g>
			<path fill="#E2EDED" d="M1084.057,596.185c0.098-7.721-2.66-16.681-10.178-26.921c0,0-26.772-29.607-11.577-59.767h-3.044
				h-20.292h-2.682h-20.292h-3.044c15.195,30.159-11.577,59.767-11.577,59.767c-7.519,10.241-10.276,19.202-10.178,26.924
				c-0.43,17.94,13.102,32.971,27.994,35.688c0.622,0.29,0.997,0.448,0.997,0.448h3.767h27.348h3.767c0,0,0.375-0.158,0.997-0.448
				C1070.956,629.158,1084.488,614.126,1084.057,596.185z"/>
		</g>
		
			<rect x="893.446" y="263.483" clip-path="url(#SVGID_2_)" fill="none" stroke="#E2EDED" stroke-miterlimit="10" width="59.766" height="67.928"/>
		
			<rect x="938.665" y="251.124" clip-path="url(#SVGID_2_)" fill="none" stroke="#E2EDED" stroke-miterlimit="10" width="29.373" height="29.374"/>
		
			<line clip-path="url(#SVGID_2_)" fill="none" stroke="#E2EDED" stroke-miterlimit="10" x1="899.5" y1="275.742" x2="921.88" y2="275.742"/>
		
			<line clip-path="url(#SVGID_2_)" fill="none" stroke="#E2EDED" stroke-miterlimit="10" x1="899.5" y1="286.651" x2="946.218" y2="286.651"/>
		
			<line clip-path="url(#SVGID_2_)" fill="none" stroke="#E2EDED" stroke-miterlimit="10" x1="899.5" y1="297.562" x2="946.218" y2="297.562"/>
		
			<line clip-path="url(#SVGID_2_)" fill="none" stroke="#E2EDED" stroke-miterlimit="10" x1="899.5" y1="308.472" x2="946.218" y2="308.472"/>
		
			<line clip-path="url(#SVGID_2_)" fill="none" stroke="#E2EDED" stroke-miterlimit="10" x1="899.5" y1="319.382" x2="946.218" y2="319.382"/>
		
			<line clip-path="url(#SVGID_2_)" fill="none" stroke="#E2EDED" stroke-miterlimit="10" x1="968.038" y1="251.124" x2="938.665" y2="280.497"/>
	</g>
	<g>
		<g>
			<path fill="none" stroke="#213F85" stroke-miterlimit="10" d="M305.882,302.685l-3.599-3.881l78.738-73.022
				c4.576-4.243,11.695-4.189,16.205,0.122l76.307,72.928l-3.657,3.827l-76.306-72.928c-2.491-2.381-6.422-2.41-8.949-0.067
				L305.882,302.685z"/>
		</g>
		<path fill="#4687D9" d="M514.327,355.19H276.448c-10.631,0-19.249-8.618-19.249-19.249v-41.27c0-3.746,3.036-6.782,6.782-6.782
			h237.878c10.631,0,19.249,8.618,19.249,19.249v41.27C521.108,352.153,518.072,355.19,514.327,355.19z"/>
		<circle fill="#4687D9" cx="389.154" cy="236.721" r="11.343"/>
		<g>
			
				<text transform="matrix(1 0 0 1 310.8882 337.0479)" fill="#FFFFFF" font-family="'BebasNeue-Regular'" font-size="41.8218" letter-spacing="4">DAY CARE</text>
		</g>
	</g>
</g>
</svg>
