<svg xmlns="http://www.w3.org/2000/svg" style="display: none;"><symbol id="television" viewBox="0 0 512 512"><title>television</title><g><g><g><g><g><g><g><g><circle cx="256" cy="256" fill="#ffce00" r="256"/></g></g></g></g></g></g></g></g><path d="m512 256c0-25.111-3.616-49.378-10.355-72.309l-69.944-69.944-351.402 234.613 163.348 163.348c4.093.194 8.212.292 12.353.292 141.385 0 256-114.615 256-256z" fill="#ffa300"/><g><path d="m201.756 322.948h108.488v73.303h-108.488z" fill="#555a66"/></g><g><path d="m256.121 322.948h54.124v73.303h-54.124z" fill="#333940"/></g><g><path d="m80.299 113.747h351.402v234.613h-351.402z" fill="#707789"/></g><g><path d="m256.121 113.747h175.58v234.613h-175.58z" fill="#555a66"/></g><g><path d="m102.272 137.268h307.456v187.571h-307.456z" fill="#7584f2"/></g><g><path d="m256.121 137.268h153.608v187.571h-153.608z" fill="#606aea"/></g><g><path d="m177.201 380.613h157.357v41.05h-157.357z" fill="#707789"/></g><g><path d="m256.121 380.613h78.438v41.05h-78.438z" fill="#555a66"/></g></symbol><symbol id="enfermera" viewBox="0 0 36 58"><title>enfermera</title><g id="007---Nurse" fill-rule="nonzero" transform="translate(0 -1)"><path id="Shape" d="m31.02 28c0 1.6568542-1.3431458 3-3 3-.1882886.0003363-.3760566-.0197817-.56-.06-.6522214 1.6694685-1.7697753 3.1167355-3.22 4.17-1.0470253.8226918-2.1884163 1.5175975-3.4 2.07-.8797163.4491309-1.8366178.7273789-2.82.82-.9978326-.0968408-1.968281-.3818677-2.86-.84-1.1982953-.5458563-2.3264309-1.2341533-3.36-2.05-1.4502247-1.0532645-2.56777859-2.5005315-3.22-4.17-.18394343.0402183-.37171144.0603363-.56.06-1.65685425 0-3-1.3431458-3-3s1.34314575-3 3-3v-3.94c3.41-.01 10-.61 10-5.06 0 4.45 6.59 5.05 10 5.06v3.94c1.6568542 0 3 1.3431458 3 3z" fill="#fdd7ad"/><path id="Shape" d="m34.3 40.19c-2.93.18-8.71-.13-10.06-5.08 1.4502247-1.0532645 2.5677786-2.5005315 3.22-4.17.1839434.0402183.3717114.0603363.56.06 1.6568542 0 3-1.3431458 3-3s-1.3431458-3-3-3v-3.94c-3.41-.01-10-.61-10-5.06l-.02-1c3.1178657-.082177 6.2210692.4548506 9.13 1.58l1.25-4.05c2.0491638 1.3293732 3.6626342 3.23146 4.64 5.47 4.18 9.4 0 16.49 2.08 20.73.1551464.2964351.1517631.6508196-.0090144.9442387-.1607776.293419-.4576443.4869907-.7909856.5157613z" fill="#805333"/><path id="Shape" d="m36 55v3c0 .5522847-.4477153 1-1 1h-34c-.55228475 0-1-.4477153-1-1v-3c-.00191673-4.6295053 2.8970142-8.7639805 7.25-10.34l6.41 8.57c.3376588.449008.8537927.7290982 1.4142817.7674879.5604889.0383896 1.1099921-.1687118 1.5057183-.5674879l1.42-1.43 1.42 1.43c.3957262.3987761.9452294.6058775 1.5057183.5674879.560489-.0383897 1.0766229-.3184799 1.4142817-.7674879l6.41-8.57c4.3529858 1.5760195 7.2519167 5.7104947 7.25 10.34z" fill="#81ccb8"/><path id="Shape" d="m28.75 44.66-6.41 8.57c-.3376588.449008-.8537927.7290982-1.4142817.7674879-.5604889.0383896-1.1099921-.1687118-1.5057183-.5674879l-1.42-1.43 5-8h2c1.2791611-.0031054 2.5487648.2203448 3.75.66z" fill="#26b99a"/><path id="Shape" d="m23 44-5 8-5-8c1.9-1.73 2.31-4.71 2.16-6.84.891719.4581323 1.8621674.7431592 2.86.84.9833822-.0926211 1.9402837-.3708691 2.82-.82-.15 2.13.26 5.1 2.16 6.82z" fill="#f9c795"/><path id="Shape" d="m18 52-1.42 1.43c-.3957262.3987761-.9452294.6058775-1.5057183.5674879-.560489-.0383897-1.0766229-.3184799-1.4142817-.7674879l-6.41-8.57c1.20123522-.4396552 2.47083892-.6631054 3.75-.66h2z" fill="#26b99a"/><path id="Shape" d="m30.53 5.54-2.15 6.99-1.25 4.05c-2.9089308-1.1251494-6.0121343-1.662177-9.13-1.58-3.1178657-.082177-6.2210692.4548506-9.13 1.58l-1.24-4.03-2.16-7.01c-.29432101-.94162192.14906915-1.95630326 1.04-2.38 3.6274008-1.54683092 7.5485083-2.2839582 11.49-2.16 3.9414917-.1239582 7.8625992.61316908 11.49 2.16.8909309.42369674 1.334321 1.43837808 1.04 2.38z" fill="#ecf0f1"/><path id="Shape" d="m5.02 28c0 1.6568542 1.34314575 3 3 3 .18828856.0003363.37605657-.0197817.56-.06.65222141 1.6694685 1.7697753 3.1167355 3.22 4.17-1.35 4.95-7.13 5.26-10.06 5.08-.33334131-.0287706-.630208-.2223423-.79098557-.5157613-.16077757-.2934191-.1641608-.6478036-.00901443-.9442387 2.08-4.24-2.1-11.33 2.08-20.73.96975441-2.2289457 2.57274571-4.1240221 4.61-5.45l1.24 4.03c2.9089308-1.1251494 6.0121343-1.662177 9.13-1.58l.02 1c0 4.45-6.59 5.05-10 5.06v3.94c-1.65685425 0-3 1.3431458-3 3z" fill="#a56a43"/><path id="Shape" d="m21 7h-2v-2c0-.55228475-.4477153-1-1-1s-1 .44771525-1 1v2h-2c-.5522847 0-1 .44771525-1 1s.4477153 1 1 1h2v2c0 .5522847.4477153 1 1 1s1-.4477153 1-1v-2h2c.5522847 0 1-.44771525 1-1s-.4477153-1-1-1z" fill="#ff5364"/><path id="Shape" d="m32 52h-1v-1c0-.5522847-.4477153-1-1-1s-1 .4477153-1 1v1h-1c-.5522847 0-1 .4477153-1 1s.4477153 1 1 1h1v1c0 .5522847.4477153 1 1 1s1-.4477153 1-1v-1h1c.5522847 0 1-.4477153 1-1s-.4477153-1-1-1z" fill="#fff"/></g></symbol><symbol id="medical-record" viewBox="0 0 512 512"><title>medical-record</title><path d="m451 45v452c0 8.401-6.599 15-15 15h-360c-8.401 0-15-6.599-15-15v-452c0-8.401 6.599-15 15-15h360c8.401 0 15 6.599 15 15z" fill="#bf6015"/><path d="m451 45v452c0 8.401-6.599 15-15 15h-180v-482h180c8.401 0 15 6.599 15 15z" fill="#994c0f"/><path d="m91 60h330v422h-330z" fill="#dcf4ff"/><path d="m256 60h165v422h-165z" fill="#ccefff"/><path d="m346 181h-45v-46c0-8.401-6.599-15-15-15h-60c-8.401 0-15 6.599-15 15v46h-45c-8.401 0-15 6.599-15 15v60c0 8.401 6.599 15 15 15h45v46c0 8.401 6.599 15 15 15h60c8.401 0 15-6.599 15-15v-46h45c8.401 0 15-6.599 15-15v-60c0-8.401-6.599-15-15-15z" fill="#ff6849"/><g fill="#596c76"><path d="m361 377c0 8.401-6.599 15-15 15h-120c-8.401 0-15-6.599-15-15s6.599-15 15-15h120c8.401 0 15 6.599 15 15z"/><circle cx="165.999" cy="376.999" r="15"/><path d="m361 437c0 8.401-6.599 15-15 15h-120c-8.401 0-15-6.599-15-15s6.599-15 15-15h120c8.401 0 15 6.599 15 15z"/><circle cx="165.999" cy="436.999" r="15"/></g><path d="m316 0h-120c-8.401 0-15 6.599-15 15v60c0 8.401 6.599 15 15 15h120c8.401 0 15-6.599 15-15v-60c0-8.401-6.599-15-15-15z" fill="#00c3ff"/><path d="m316 90h-60v-90h60c8.401 0 15 6.599 15 15v60c0 8.401-6.599 15-15 15z" fill="#00aaf0"/><path d="m361 437c0 8.401-6.599 15-15 15h-90v-30h90c8.401 0 15 6.599 15 15z" fill="#465a61"/><path d="m361 377c0 8.401-6.599 15-15 15h-90v-30h90c8.401 0 15 6.599 15 15z" fill="#465a61"/><path d="m361 196v60c0 8.401-6.599 15-15 15h-45v46c0 8.401-6.599 15-15 15h-30v-212h30c8.401 0 15 6.599 15 15v46h45c8.401 0 15 6.599 15 15z" fill="#fd4b2d"/></symbol><symbol id="enfermera-1" viewBox="0 0 511.999 511.999"><title>enfermera-1</title><path style="fill:#495059;" d="M80.404,239.879c0,32.747,0,68.799-19.088,90.216c-7.626,8.557-5.293,22.008,4.589,27.814 c50.281,29.538,111.661,42.663,190.094,42.663s139.813-13.125,190.094-42.663c9.883-5.806,12.216-19.258,4.589-27.814 c-19.088-21.417-19.088-57.468-19.088-90.216c0-101.344-78.772-183.794-175.595-183.794S80.404,138.534,80.404,239.879z"/><circle style="fill:#F5D7B7;" cx="97.619" cy="239.879" r="27.892"/><circle style="opacity:0.15;enable-background:new ;" cx="97.619" cy="239.879" r="27.892"/><circle style="fill:#F5D7B7;" cx="414.379" cy="239.879" r="27.892"/><circle style="opacity:0.15;enable-background:new ;" cx="414.379" cy="239.879" r="27.892"/><path style="fill:#7FDBD5;" d="M380.844,511.999c6.564,0,11.797-5.601,11.221-12.139c-6.142-69.755-64.716-124.46-136.066-124.46 s-129.924,54.704-136.067,124.459c-0.576,6.539,4.657,12.139,11.221,12.139h249.691V511.999z"/><path style="opacity:0.1;enable-background:new ;" d="M341.777,474.975h-29.418c-4.143,0-7.5-3.358-7.5-7.5s3.357-7.5,7.5-7.5 h29.418c4.143,0,7.5,3.358,7.5,7.5S345.92,474.975,341.777,474.975z"/><path style="fill:#FFFFFF;" d="M204.004,385.654l40.975,79.303c4.623,8.947,17.415,8.952,22.037,0.005 c11.596-22.443,29.699-57.48,40.977-79.308c-16.028-6.603-33.584-10.254-51.995-10.254S220.032,379.051,204.004,385.654z"/><path style="opacity:0.1;enable-background:new ;" d="M255.999,375.4c-30.637,0-58.912,10.093-81.698,27.125 c24.419,13.492,52.219,21.147,81.698,21.147s57.279-7.655,81.698-21.147C314.911,385.493,286.636,375.4,255.999,375.4z"/><ellipse style="fill:#F5D7B7;" cx="255.999" cy="239.879" rx="158.38" ry="166.58"/><g> <ellipse style="fill:#F28B74;" cx="156.219" cy="282.849" rx="36.817" ry="29.32"/> <ellipse style="fill:#F28B74;" cx="355.779" cy="282.849" rx="36.817" ry="29.32"/> </g><g> <path style="fill:#495059;" d="M177.675,261.103c-4.143,0-7.5-3.358-7.5-7.5v-13.002c0-4.142,3.357-7.5,7.5-7.5s7.5,3.358,7.5,7.5 v13.002C185.175,257.746,181.817,261.103,177.675,261.103z"/> <path style="fill:#495059;" d="M334.323,261.103c-4.143,0-7.5-3.358-7.5-7.5v-13.002c0-4.142,3.357-7.5,7.5-7.5s7.5,3.358,7.5,7.5 v13.002C341.823,257.746,338.466,261.103,334.323,261.103z"/> <path style="fill:#495059;" d="M255.999,271.087c-10.082,0-19.669-4.367-26.304-11.98c-2.722-3.123-2.396-7.86,0.727-10.582 c3.122-2.721,7.859-2.397,10.582,0.727c3.785,4.344,9.251,6.835,14.995,6.835s11.21-2.491,14.995-6.835 c2.721-3.124,7.457-3.449,10.582-0.727c3.122,2.721,3.448,7.459,0.727,10.582C275.668,266.721,266.081,271.087,255.999,271.087z"/> </g><path style="opacity:0.05;enable-background:new ;" d="M255.999,73.302c-87.47,0-158.378,74.579-158.378,166.576 c0,91.998,70.908,166.576,158.378,166.576c35.536,0,68.339-12.31,94.764-33.096c-166.733,31.155-207.992-60.284-214.759-130.206 c-0.611-6.31,3.64-12.045,9.855-13.293c44.349-8.906,103.157-30.32,146.515-81.323c12.75,27.234,70.045,91.692,121.925,86.318l0,0 C411.773,145.182,341.87,73.302,255.999,73.302z"/><path style="fill:#495059;" d="M255.999,66.059c-89.208,0-154.322,91.584-163.006,141.975c-0.99,5.747,3.328,11.039,9.154,11.292 c82.948,3.603,156.653-37.65,187.653-69.258c2.492-2.541,6.638-2.302,8.859,0.479c16.447,20.592,67.273,70.989,113.862,73.204 c5.6,0.266,10.247-4.391,9.868-9.985C416.537,127.39,332.926,66.059,255.999,66.059z"/><path style="fill:#7FDBD5;" d="M351.315,10.267l-19.053-3.439c-50.434-9.104-102.092-9.104-152.526,0l-19.053,3.439 c-12.007,2.167-19.63,14.096-16.553,25.903l17.987,69.024c1.955,7.501,8.542,12.872,16.283,13.276l52.214,2.727 c16.911,0.883,33.857,0.883,50.768,0l52.214-2.727c7.741-0.404,14.329-5.775,16.284-13.276l17.987-69.024 C370.945,24.363,363.322,12.434,351.315,10.267z"/><path style="fill:#FFFFFF;" d="M269.442,44.849V24.852c0-1.835-1.488-3.323-3.323-3.323h-20.24c-1.835,0-3.323,1.488-3.323,3.323 v19.997c0,1.457-1.181,2.637-2.637,2.637h-19.997c-1.835,0-3.323,1.488-3.323,3.323v20.24c0,1.835,1.488,3.323,3.323,3.323h19.997 c1.456,0,2.637,1.181,2.637,2.637v19.996c0,1.835,1.488,3.323,3.323,3.323h20.24c1.835,0,3.323-1.488,3.323-3.323V77.009 c0-1.456,1.181-2.637,2.637-2.637h19.996c1.835,0,3.323-1.488,3.323-3.323v-20.24c0-1.835-1.488-3.323-3.323-3.323h-19.996 C270.623,47.486,269.442,46.305,269.442,44.849z"/><path style="opacity:0.1;enable-background:new ;" d="M178.401,118.47l52.214,2.727c5.5,0.287,11.004,0.471,16.509,0.572 c-48.649-25.933-56.443-87.772-44.611-118.398c-7.614,0.956-15.21,2.091-22.777,3.457l-19.053,3.44 c-12.007,2.167-19.63,14.096-16.553,25.903l17.987,69.024C164.072,112.695,170.66,118.066,178.401,118.47z"/></symbol><symbol id="cardiovascular" viewBox="0 0 512 512"><title>cardiovascular</title><path d="m211 0h30v85.296875h-30zm0 0" fill="#3e7b81"/><path d="m151 0h30v93.644531h-30zm0 0" fill="#c782ff"/><path d="m482 45c-16.570312 0-30 13.429688-30 30v154.804688l-266 232.195312 70 50h166v-70l90-149.5v-217.5c0-16.570312-13.429688-30-30-30zm0 0" fill="#ffa785"/><path d="m443.214844 208.785156c-11.71875-11.714844-30.710938-11.714844-42.429688 0l-127.253906 127.253906c-10.851562 10.859376-17.53125 25.894532-17.53125 42.460938l-30 51.75 30 51.75c49.707031 0 90-40.292969 90-90v-43.574219l97.214844-97.210937c11.714844-11.71875 11.714844-30.710938 0-42.429688zm0 0" fill="#ffbea4"/><path d="m195.5 347.925781-135.5-118.121093v-154.804688c0-16.570312-13.429688-30-30-30s-30 13.429688-30 30v217.5l90 149.5v70h166v-30zm0 0" fill="#ffbea4"/><path d="m238.46875 336.039062-127.253906-127.253906c-11.71875-11.714844-30.710938-11.714844-42.429688 0-11.714844 11.71875-11.714844 30.710938 0 42.429688l97.214844 97.210937v43.574219c0 49.707031 40.292969 90 90 90v-103.5c0-16.566406-6.679688-31.601562-17.53125-42.460938zm0 0" fill="#ffd4c4"/><path d="m356.71875 72.078125c-3.335938-3.335937-6.933594-6.257813-10.71875-8.773437v-63.304688h-60v55.308594c-9.941406 3.285156-19.292969 8.863281-27.203125 16.769531-.96875.96875-1.898437 1.960937-2.796875 2.972656l-60 97.835938 60 97.835937 100.71875-100.722656c27.042969-27.039062 27.042969-70.882812 0-97.921875zm0 0" fill="#e00016"/><path d="m253.203125 72.078125c-27.042969-27.039063-70.882813-27.039063-97.921875 0-27.042969 27.039063-27.042969 70.882813 0 97.921875l100.71875 100.722656v-195.671875c-.898438-1.011719-1.828125-2.003906-2.796875-2.972656zm0 0" fill="#ff4547"/></symbol><symbol id="humano" viewBox="0 0 512 512"><title>humano</title><path d="m512 256c0 141.386719-114.613281 256-256 256s-256-114.613281-256-256 114.613281-256 256-256 256 114.613281 256 256zm0 0" fill="#10bb66"/><path d="m508.722656 296.953125-210.679687-210.679687-119.074219 238.839843 30.460938 30 10.824218 87.125 67.769532 67.769531c112.785156-14.074218 202.765624-101.515624 220.699218-213.054687zm0 0" fill="#0ca655"/><path d="m297.734375 442.238281h-77.480469l-17.261718-138.953125h112.003906zm0 0" fill="#c8c6ce"/><path d="m314.996094 303.285156h-56.003906v138.953125h38.742187zm0 0" fill="#aeadb4"/><path d="m339.019531 325.113281h-160.050781v-113.492187c0-30.082032 24.476562-54.558594 54.5625-54.558594h50.921875c30.085937 0 54.5625 24.472656 54.5625 54.558594v113.492187zm0 0" fill="#fedb41"/><path d="m284.457031 157.0625h-25.464843v168.050781h80.027343v-113.492187c0-30.082032-24.480469-54.558594-54.5625-54.558594zm0 0" fill="#fcbf27"/><path d="m307.007812 289.679688-38.480468-38.785157c-12.679688-12.78125-12.679688-33.578125 0-46.359375 6.167968-6.214844 14.375-9.640625 23.109375-9.644531h.011719c5.445312 0 10.6875 1.332031 15.359374 3.839844 4.671876-2.507813 9.914063-3.839844 15.359376-3.839844h.011718c8.734375.003906 16.941406 3.425781 23.109375 9.644531 12.679688 12.78125 12.679688 33.578125 0 46.359375zm0 0" fill="#fd3019"/><path d="m258.992188 178.886719c-30.085938 0-54.5625-24.476563-54.5625-54.5625 0-30.085938 24.476562-54.5625 54.5625-54.5625 30.085937 0 54.5625 24.476562 54.5625 54.5625 0 30.085937-24.476563 54.5625-54.5625 54.5625zm0 0" fill="#fedbab"/><path d="m258.992188 69.761719v109.125c30.085937 0 54.5625-24.476563 54.5625-54.5625 0-30.085938-24.476563-54.5625-54.5625-54.5625zm0 0" fill="#fec478"/><path d="m345.488281 204.535156c-6.167969-6.21875-14.375-9.640625-23.109375-9.644531-.003906 0-.007812 0-.011718 0-5.445313 0-10.6875 1.332031-15.359376 3.839844v90.949219l38.480469-38.785157c12.683594-12.78125 12.683594-33.578125 0-46.359375zm0 0" fill="#e71e15"/></symbol></svg>